<?xml version="1.0" encoding="utf-8"?>
<!-- Generator: Adobe Illustrator 26.0.1, SVG Export Plug-In . SVG Version: 6.00 Build 0)  -->
<svg version="1.1" id="Layer_1" xmlns="http://www.w3.org/2000/svg" xmlns:xlink="http://www.w3.org/1999/xlink" x="0px" y="0px"
	 viewBox="0 0 264 280" style="enable-background:new 0 0 264 280;" xml:space="preserve">
<style type="text/css">
	.st0{fill:#719FD5;}
	.st1{fill:#FFFFFF;}
	.st2{fill:#7DBD6E;}
	.st3{fill:#EA5899;}
	.st4{fill:#E1DF2C;}
	.st5{fill:#2060AA;}
	.st6{fill:#E61F5F;}
	.st7{fill:#E61E61;}
	.st8{fill:#E62061;}
	.st9{fill:#E61E60;}
	.st10{fill:#1F61AB;}
	.st11{fill:#2261AB;}
	.st12{fill:#2160AA;}
	.st13{fill:#E32161;}
	.st14{fill:#2061AA;}
	.st15{fill:#C3326A;}
	.st16{fill:#FDFCFD;}
	.st17{fill:#FAFCFC;}
</style>
<g id="Mask">
</g>
<g>
	<path class="st0" d="M26.5,209.3c-2.9-6.8-6.1-13.6-8.2-20.7c-4.9-17-6.3-34.2-3.9-51.7c2.7-19.2,9.6-36.8,20.8-52.6
		c14.4-20.3,33.3-34.9,56.8-43.4c13.2-4.8,26.8-7.1,40.8-6.9c28.3,0.5,53.3,9.9,74.9,28.2c11.7,9.9,21.1,21.7,28.2,35.2
		c0.3,0.5,0.6,1,1,1.5c2.7,3.9,4.4,8.4,6,12.8c1.3,3.8,2.8,7.6,3.7,11.5c1.7,5.7,2.3,11.6,3.2,17.4c1.1,7.1,0.9,14.2,0.5,21.3
		c-0.6,9.3-2.2,18.6-5,27.6c-1.2,2.6-1.8,5.5-3,8.2c-4.3,11.2-10.5,21.4-17.6,31c-5,6.3-10.6,12-16.6,17.3
		c-7.3,6.5-15.6,11.7-24.3,16c-15.1,7.4-31,11.6-47.9,12c-12.6,0.4-25-1-37.1-4.5c-15.6-4.6-29.6-12.1-42.2-22.4
		c-8.4-6.9-15.7-14.9-22-23.7c-2.7-3.8-5.3-7.6-7.3-11.8C26.9,210.9,26.9,210.1,26.5,209.3z"/>
	<path class="st1" d="M50.1,197c-2.3-5.3-4.7-10.5-6.3-16.1c-3.8-13.2-4.9-26.5-3-40.2c2.1-14.9,7.5-28.6,16.1-40.8
		C68.1,84.1,82.8,72.8,101,66.2c10.2-3.7,20.8-5.5,31.7-5.3c22,0.4,41.4,7.7,58.1,21.9c9.1,7.7,16.3,16.8,21.9,27.4
		c0.2,0.4,0.5,0.8,0.8,1.1c2.1,3.1,3.4,6.5,4.6,9.9c1,2.9,2.2,5.9,2.9,9c1.3,4.4,1.8,9,2.5,13.5c0.8,5.5,0.7,11,0.4,16.5
		c-0.5,7.3-1.7,14.4-3.9,21.4c-1,2-1.4,4.3-2.3,6.3c-3.3,8.7-8.1,16.6-13.7,24c-3.9,4.9-8.2,9.3-12.9,13.4
		c-5.7,5-12.1,9.1-18.9,12.5c-11.7,5.8-24.1,9-37.2,9.3c-9.8,0.3-19.4-0.8-28.8-3.5c-12.1-3.5-23-9.4-32.8-17.4
		c-6.6-5.3-12.2-11.5-17.1-18.4c-2.1-2.9-4.1-5.9-5.7-9.2C50.5,198.2,50.4,197.6,50.1,197z"/>
	<g>
		<path d="M211.3,102.1c-9.6-4.1-10.2-5.6-6.4-15.6c0.4-1.2,1-2.3,1.3-3.5c2.5-9.2-1.2-14.4-10.8-14.8c-4.2-0.2-8.4,0.1-12.6,0.2
			c-3,0.1-4.5-1.1-4.5-4.4c0-3.3,1.6-4.3,4.6-4.2c3,0.1,6-0.2,8.9,0c5,0.5,6.7-1.4,5.7-6.4c-2.1-9.9-4-19.9-5.6-29.9
			c-0.6-4-2.5-5.6-6.3-5.6c-6.2,0.1-12.4,0.1-18.6,0c-3.9-0.1-5.7,1.6-6.3,5.5c-1.4,9-3.4,18-5.1,27c-1.7,9.3-1.7,9.3,8.1,9.3
			c1.7,0,3.5,0,5.2,0c2.9,0,5.4,0.2,5.5,4.2c0,3.8-2.1,4.5-5.2,4.5c-6.4,0-12.9,0.1-19.3,0c-12.6-0.2-10.7,1.6-13.1-11.3
			c-2-10.9-3.9-21.9-6.5-32.7c-2.1-8.8-7.3-15.7-16.6-17.1C96.3,4.9,79,5.1,62,9.7c-9.3,2.6-11.5,6.1-10,15.9
			c2.3,15.5,4.6,31,7.1,46.4c0.3,1.7,0.5,3.3,0.8,5c0.4,2.4,0.8,4.8,1.2,7.2c1.7,10,3.6,20,6.6,29.6c0.9,3.1,2.2,5.9,3.9,8.4
			c0.7,1,1.4,1.9,2.2,2.7c2.7,2.9,6.2,5,10.7,6.1c3.4,0.8,4.2,2.6,3.1,5.9c-2.7,8.2-5.2,16.5-7.5,24.9c-0.5,1.9-0.3,4.1-0.5,6.2
			c0.7,0.1,1.5,0.2,2.2,0.4c0.8-2.2,1.8-4.3,2.5-6.6c2.5-8,4.7-16.1,7.5-24.1c0.7-1.9,3-4.5,4.5-4.5c12.6,0,25.2,0.7,37.8,1
			c3.1,0.1,4.8,1.6,5.9,4.6c2,5.8,2.8,11.4,0.3,17.3c-1.5,3.6-2.1,7.5-3.1,11.4l2.5,0.8c1.6-3.5,3.2-7.1,5.4-11.9
			c1.1,3.6,1.7,6.2,2.8,8.6c0.5,1.1,1.8,1.9,2.8,2.8c0.4-1.2,1.2-2.6,1-3.7c-1.1-4.6-3.4-9-3.6-13.6c-0.1-4.7,1.2-9.8,3.3-13.9
			c0.9-1.7,5.7-1.8,8.7-1.9c10.1-0.3,20.3,0.1,30.4-0.6c5.1-0.3,7,1.3,8.2,6c1.8,7.4,4.2,14.7,6.7,22c0.7,2.1,2.4,3.8,3.7,5.7
			c0.1-2.1,0.7-4.4,0.2-6.4c-1.7-6.5-3.8-12.8-5.7-19.2c-2.3-7.7-2.2-7.3,5.6-9c3.8-0.8,8.5-2.6,10.6-5.5
			C225.3,120,220.3,106,211.3,102.1z M158.9,55.3c1.9-10.2,3.6-19.9,5.7-29.5c0.3-1.5,2.9-3.2,4.5-3.4c4.4-0.5,8.9-0.2,13.3-0.2
			c2.6,0,5,0,5.4,3.6c0.4,3.9-2.4,3.6-4.8,3.8c-0.9,0.1-1.8,0.3-2.7,0.4c0,0.2,0,0.5,0,0.7c1.9,0.2,4.1,0,5.7,0.8
			c1.4,0.7,2.3,2.6,3.4,3.9c-1.2,0.9-2.4,2.2-3.7,2.5c-2.6,0.5-5.3,0.5-8,1.6c3.1,0.2,6.3,0.1,9.3,0.7c1.4,0.2,2.5,1.6,3.8,2.5
			c-1.3,1.1-2.4,2.5-3.8,3.2c-1.2,0.6-2.7,0.4-5.2,0.7c4,3.5,12.9-0.8,10.8,8.6H158.9z M148.5,129.9c-13.1,0.2-26.2,0-39.3-0.2
			c-5.2-0.1-10.4-0.8-15.6-1c-11.5-0.5-19.2-6.1-22.5-17.1c-2.2-7.3-3.8-14.8-5-22.4c-3.5-21-6.9-42-9.8-63
			c-1.4-9.8,0.2-12.4,10-13.4c14.7-1.5,29.6-2,44.3-1.8c7.9,0.1,13.2,5.7,15,13.4c2.7,11.5,5,23.2,7.1,34.9
			c1.9,10.7,3.3,21.5,5,32.2c0.4,2.2,1.2,4.4,1.8,6.5c0.7-0.1,1.5-0.1,2.2-0.2c0.1-1.9,0.5-3.9,0.3-5.8c-0.6-4.9-1.5-9.8-2.3-14.6
			c-0.5-3,0.4-4.7,3.8-4.7c8.6,0.1,17.3,0.1,26,0c3.6,0,4.8,1.6,4.7,4.9c-0.1,4.7-0.1,9.4,0,14.1c0,1.7,0.6,3.4,1,5.2
			c0.8,0,1.6,0,2.4,0c0.2-3.6,0.5-7.3,0.6-10.9c0.1-13.2,0-13.2,13.4-13.5c1.2,0,2.5-0.1,3.7,0c6.8,0.3,8.6,3.1,6.7,9.7
			c-1.6,5.6-3.1,11.2-4.9,17.7c-0.1,0-1.5,0.4-2.9,0.4c-30.9,0.4-61.8,0.9-92.8,1.3c-7.4,0.1-10.9-3.2-12.4-11.9
			c-2.6-14.9-5-29.7-7.5-44.6c-1.3-7.8-2.6-15.6-4.1-23.4c-0.3-1.5-1-3-1.6-4.4c-0.7,0.1-1.5,0.2-2.2,0.3c0,2.1-0.3,4.1,0,6.2
			c3.7,22.2,7.4,44.4,11.3,66.5c2.2,12.4,6.6,15.6,19.3,15.4c13.1-0.2,26.2-0.5,39.3-0.1c9.7,0.3,14,5.2,14.2,14.4
			C158.2,127.3,156.2,129.8,148.5,129.9z M198.4,124.2c5.6,0.2,11.3,0.1,16.9,0.1c0.2,0.7,0.4,1.4,0.7,2.1c-1.8,0.9-3.6,2.5-5.5,2.6
			c-8.4,0.7-16.7,1.2-25.1,1.4c-7.9,0.2-15.7,0-22.6,0c-1.1-8.9-2.1-16.6-3.2-25.3c16.4-0.6,34-1.9,51.5,0.6c0,0.8,0,1.6,0,2.4
			h-31.9c0,0.5,0,1.1,0,1.6c9.8,0.4,19.5,0.8,29.3,1.1c1.2,0,2.6-0.3,3.7,0c1.4,0.5,2.5,1.5,3.8,2.3c-1.2,0.6-2.3,1.7-3.6,1.7
			c-6.9,0.3-13.8,0.3-20.7,0.4c-3.7,0.1-7.3,0.3-11,1c12.1,1.6,24.4,0.6,36.5,3c-11.5,3-23.2,1.5-34.8,3.7
			C187.7,123.4,193,124,198.4,124.2z"/>
		<path class="st2" d="M71.6,121.9c-1.4,2-2.7,4.1-4.3,5.9c-2,2.2-4.5,4.1-7.1,6.4c-1.2-4.1-2-7.1-2.8-10.1c-0.7,0.1-1.3,0.2-2,0.3
			c-0.4,3-0.8,6-1.3,9.6c-9.8-2.8-14.6-9.5-15.3-20.8c-0.7-12.7,4.1-23.6,10.6-34.1c2.9-4.6,5.7-6.1,10.2-2.4c0,0,0.1,0,0.3-0.1
			c0.4,2.4,0.8,4.8,1.2,7.2c1.7,10,3.6,20,6.6,29.6C68.6,116.6,69.9,119.4,71.6,121.9z"/>
		<path d="M77.2,147.4c-1.8,5.6-3.7,11.2-5.5,16.7c-0.1,0.2-0.4,0.4-0.6,0.4c-8.6,1.5-17.2,1-25.7-1c7.3-3.9,15.3-1.2,22.9-4.5
			c-3.6-0.4-7.2-0.9-10.8-1.3v-0.5c4.2-0.4,8.5-0.7,12.7-1.1c0-0.7,0.1-1.4,0.1-2.1c-3.4-0.8-6.7-1.5-10.1-2.3c0-0.2,0-0.3,0-0.5
			c3.4-0.2,6.7-0.4,10.1-0.5c0-0.6,0-1.2,0-1.8H40.1c2.8-5.3,7-3.1,10.5-4c1.4-0.4,3.5-1.4,3.7-2.5c0.2-1.1-1.1-3.5-2.2-3.9
			c-6.7-2.3-11.6-6.4-14.5-12.9c-3.5-8-3.6-16.4-2-24.8c2-10.4,6.7-19.6,13.3-27.8c1.7-2.1,5.2-5.2,6.4-4.7c1.4,0.7,2.6,1.9,3.7,3.3
			c1,1.2,1.9,2.5,2.9,3.7c-1.1,0.6-1.8,1.1-2.1,1.2c-0.1,0.1-0.2,0.1-0.3,0.1c-4.5-3.7-7.3-2.2-10.2,2.4
			c-6.6,10.5-11.4,21.4-10.6,34.1c0.6,11.3,5.4,18,15.3,20.8c0.5-3.6,0.9-6.6,1.3-9.6c0.7-0.1,1.3-0.2,2-0.3c0.8,3,1.7,6,2.8,10.1
			c2.6-2.3,5-4.2,7.1-6.4c1.6-1.8,2.9-3.9,4.3-5.9c0.2-0.3,0.5-0.7,0.7-1c0.5,0.1,1,0.3,1.5,0.5c-0.1,1,0.2,2.3,0,3.3
			c0,0.4-0.1,0.7-0.4,1c-3.4,4.1-7.3,7.9-10.8,11.9c-1.3,1.5-2.2,3.3-3.2,5c1.8,0.8,3.6,1.7,5.4,2.5c0.2,0.1,0.5,0,0.7,0
			C69.4,145.8,73.3,146.6,77.2,147.4z"/>
		<path class="st3" d="M73.7,17c0,2.1-0.3,4.2,0,6.2c3.7,22.2,7.4,44.4,11.3,66.5c2.2,12.4,6.6,15.6,19.3,15.4
			c13.1-0.2,26.2-0.5,39.3-0.1c9.7,0.3,14,5.1,14.3,14.4c0.2,7.4-1.8,10-9.4,10.1c-13.1,0.2-26.2,0-39.3-0.2
			c-5.2-0.1-10.4-0.8-15.6-1c-11.5-0.5-19.2-6.1-22.5-17.1c-2.2-7.3-3.8-14.8-5-22.4c-3.5-21-6.9-42-9.8-63
			c-1.4-9.8,0.2-12.4,10-13.4c14.7-1.5,29.6-2,44.3-1.8c7.9,0.1,13.2,5.8,15,13.4c2.7,11.5,5,23.2,7.1,34.8
			c1.9,10.7,3.3,21.5,5,32.2c0.4,2.2,1.2,4.4,1.8,6.5c0.7-0.1,1.5-0.1,2.2-0.2c0.1-1.9,0.5-3.9,0.3-5.8c-0.6-4.9-1.5-9.8-2.3-14.7
			c-0.5-3,0.4-4.7,3.8-4.7c8.7,0.1,17.3,0.1,26,0c3.6-0.1,4.8,1.6,4.7,4.9c-0.1,4.7-0.1,9.4,0,14.1c0.1,1.7,0.6,3.4,1,5.2
			c0.8,0,1.6,0,2.4,0c0.2-3.6,0.5-7.3,0.6-10.9c0.1-13.2,0-13.2,13.4-13.5c1.2,0,2.5-0.1,3.7,0c6.8,0.3,8.6,3.1,6.7,9.7
			c-1.6,5.6-3.1,11.2-4.8,17.6c-0.1,0-1.5,0.4-2.9,0.4c-30.9,0.5-61.8,0.9-92.8,1.3c-7.4,0.1-10.9-3.2-12.4-11.9
			c-2.6-14.9-5-29.7-7.5-44.6c-1.3-7.8-2.6-15.6-4.1-23.4c-0.3-1.5-1-3-1.6-4.4C75.2,16.9,74.5,16.9,73.7,17z M101.5,60.4
			c0.9,3.6,1.4,6.2,2.2,8.8c0.1,0.2,1.3,0.1,1.9,0.1c-0.4-2.6-0.8-5.2-1.2-7.9C104.3,61.3,103.9,61.3,101.5,60.4z M100.2,31.2
			c-0.5,0-1,0.1-1.5,0.1c-0.4,1-1.3,2.1-1.1,2.9c0.5,2,1.6,3.9,2.4,5.8c0.7-1,2-2.1,2-3C101.8,35,100.9,33.1,100.2,31.2z
			 M119.4,69.9c3.2-5.8,3.2-5.8-2-9.8C118.2,64.3,118.8,67.1,119.4,69.9z M113.3,30.7c0.7,3.6,1.1,6.2,1.7,8.7
			c0.1,0.2,1.3,0.2,1.9,0.3c-0.3-2.6-0.5-5.3-0.8-7.9C116.1,31.7,115.7,31.6,113.3,30.7z"/>
		<path class="st3" d="M162.7,130c-1.1-9-2.1-16.6-3.2-25.3c16.4-0.6,34-1.9,51.5,0.6c0,0.8,0,1.6,0,2.4c-10.6,0-21.3,0-31.9,0
			c0,0.5,0,1.1,0,1.6c9.8,0.4,19.5,0.8,29.3,1.1c1.2,0,2.6-0.3,3.7,0c1.4,0.5,2.5,1.5,3.8,2.3c-1.2,0.6-2.3,1.7-3.5,1.7
			c-6.9,0.3-13.8,0.3-20.8,0.4c-3.7,0.1-7.3,0.3-11,1c12.1,1.6,24.4,0.6,36.5,3c-11.5,3-23.2,1.5-34.8,3.6c5.3,0.4,10.7,1,16,1.2
			c5.6,0.2,11.3,0,16.9,0c0.2,0.7,0.4,1.4,0.6,2.1c-1.8,0.9-3.6,2.4-5.5,2.6c-8.4,0.7-16.7,1.2-25.1,1.4
			C177.4,130.2,169.5,130,162.7,130z"/>
		<path class="st4" d="M180.3,30.4c1.9,0.2,4.1,0,5.7,0.8c1.4,0.7,2.3,2.6,3.4,3.9c-1.2,0.9-2.4,2.2-3.7,2.5c-2.6,0.6-5.3,0.5-8,1.6
			c3.1,0.2,6.3,0.1,9.3,0.7c1.4,0.2,2.5,1.7,3.8,2.5c-1.3,1.1-2.4,2.5-3.8,3.2c-1.2,0.6-2.7,0.4-5.2,0.7c4,3.5,12.9-0.8,10.8,8.6
			c-11,0-21.9,0-33.7,0c1.9-10.2,3.6-19.9,5.7-29.5c0.3-1.4,2.9-3.2,4.5-3.4c4.4-0.5,8.9-0.2,13.3-0.2c2.6,0,5,0,5.4,3.5
			c0.4,3.9-2.4,3.6-4.8,3.8c-0.9,0.1-1.8,0.3-2.7,0.4C180.3,29.9,180.3,30.1,180.3,30.4z"/>
		<path d="M101.5,60.4c2.4,0.8,2.9,0.8,2.9,1c0.4,2.6,0.8,5.2,1.2,7.9c-0.7,0-1.9,0.1-1.9-0.1C102.9,66.7,102.3,64.1,101.5,60.4z"/>
		<path d="M100.2,31.2c0.6,1.9,1.6,3.8,1.7,5.7c0.1,0.9-1.3,2-2,3c-0.8-1.9-1.9-3.8-2.4-5.8c-0.2-0.8,0.7-1.9,1.1-2.9
			C99.2,31.2,99.7,31.2,100.2,31.2z"/>
		<path d="M119.4,69.9c-0.6-2.8-1.2-5.6-2-9.8C122.5,64.1,122.5,64.1,119.4,69.9z"/>
		<path d="M113.3,30.7c2.4,0.9,2.8,1,2.8,1.1c0.3,2.6,0.6,5.3,0.8,7.9c-0.7-0.1-1.9,0-1.9-0.3C114.4,36.9,114,34.3,113.3,30.7z"/>
	</g>
	<g>
		<path class="st5" d="M83.5,186.4c-0.5,3.6-0.9,7.2-1.4,10.8c-0.2,1.2-0.3,2.5-0.4,3.7c-0.3,2.2-1.7,3.3-3.8,3
			c-1.8-0.2-3-1.7-2.7-3.7c1.1-7.4,2.2-14.7,3.4-22c0.3-2.1,2-3.4,4.1-3.5c2.1-0.1,3.7,1,4.4,3.1c1.2,3.9,2.4,7.8,3.6,11.7
			c0.3,0.8,0.5,1.7,1,3c1-3.6,1.9-6.7,2.8-9.8c0.5-1.7,0.9-3.4,1.5-5.1c0.7-2.2,2.3-3.3,4.5-3.2c2.1,0.1,3.6,1.5,4,3.6
			c1.3,7.2,2.6,14.5,3.9,21.8c0.3,1.8-0.9,3.5-2.7,3.8c-1.9,0.3-3.3-0.7-3.7-2.7c-0.9-4.9-1.6-9.9-2.7-14.9c-0.8,3-1.7,5.9-2.5,8.9
			c-0.6,2-1.1,4-1.6,6c-0.4,1.7-1.1,3-3.2,3c-1.9,0-3-0.7-3.6-2.9c-1.5-4.8-3-9.7-4.5-14.5C83.7,186.4,83.6,186.4,83.5,186.4z"/>
		<path class="st6" d="M144.1,159.9c-10.8,0.6-19.9,4.8-27,13.2c-0.5,0.6-0.7,1.1-0.5,1.9c0.6,2.4-0.5,4.2-2.5,4.7
			c-1.9,0.4-3.8-0.8-4.3-2.6c-0.5-2.2,0.6-4,3-4.5c0.9-0.2,1.3-0.8,1.7-1.4c5.7-7.1,13.1-11.5,21.9-13.6c6.2-1.5,12.4-1.4,18.4,1.1
			c8.9,3.8,12.8,12.9,9.2,22c-0.6,1.4-0.6,2.3,0.6,3.5c3.7,3.8,4,10.1,0.9,14.4c-3,4.1-8.7,5.8-13.3,3.8c-5-2.1-7.8-7.3-6.8-12.5
			c1-5.4,5.5-9.3,10.9-9.3c0.6,0,1.3,0,1.9,0.2c1.8,0.6,2.4-0.1,3-1.9c2.4-7.1-0.4-15.3-10.2-18.2
			C148.9,160.1,146.5,159.8,144.1,159.9z"/>
		<path class="st7" d="M102.3,220.7c-0.1-10.5,9.2-16.2,18.4-12.9c1.1,0.4,2.1,1.1,2.6,2.3c0.6,1.3,0.4,2.4-0.4,3.5
			c-0.8,1-2,1.2-3.2,0.9c-1.2-0.3-2.3-0.9-3.6-1c-3.2-0.2-5.3,1-6.3,4c-0.7,2.2-0.7,4.5,0.1,6.6c1.4,3.7,4.8,4.9,8.6,3.3
			c2.9-1.2,4.4-1,5.3,0.9c0.9,2-0.2,4.2-2.8,5.3c-8.1,3.4-17.9-1-18.6-11.5C102.3,221.6,102.3,221.1,102.3,220.7z"/>
		<path class="st5" d="M169,191.7c0-2.5,0-5.1,0-7.6c0-1.5,0.6-2.5,1.9-3.1c1.3-0.6,2.2,0,3,0.9c0.5,0.6,0.9,0.8,1.7,0.2
			c2.8-2,5.8-2.1,8.9-0.6c2.8,1.4,3.8,3.8,3.8,6.8c0,3.6,0.1,7.2,0.1,10.8c0,2.2-1.2,3.6-3,3.6c-1.9,0-3.1-1.4-3.1-3.7
			c0-2.9,0-5.8-0.1-8.7c0-1-0.1-2-0.7-2.9c-0.9-1.3-2.1-1.9-3.7-1.5c-1.5,0.3-2.6,1.8-2.6,3.6c0,3,0.1,5.9,0.2,8.9
			c0,0.5,0.1,1.1,0,1.6c-0.3,1.8-1.6,2.9-3.2,2.9c-1.6-0.1-2.9-1.3-3-3.1c-0.1-2.7,0-5.3,0-8C169.1,191.7,169,191.7,169,191.7z"/>
		<path class="st5" d="M126.8,203.5c-2.4,0-4.6-0.5-6.5-1.9c-1.6-1.1-2-2.6-1.1-4c0.8-1.3,2.2-1.6,3.9-0.8c1.3,0.6,2.4,1.4,3.9,1.5
			c1,0,2-0.2,2.2-1.3c0.2-1-0.7-1.4-1.5-1.7c-1.6-0.7-3.2-1.3-4.8-1.9c-2.1-0.8-3.5-2.2-3.7-4.5c-0.2-2.5,0.7-4.5,2.7-6
			c2.9-2,7.8-2.1,10.8-0.2c1.7,1.1,2.3,2.6,1.6,4c-0.8,1.4-2,1.6-4,0.8c-1.1-0.5-2.3-1-3.6-0.9c-0.7,0.1-1.3,0.4-1.5,1.1
			c-0.2,0.7,0.4,1.1,0.9,1.3c1.3,0.6,2.7,1.1,4.1,1.7c3.9,1.6,5.5,3.9,4.9,7.2c-0.5,3-3.5,5.4-7,5.7
			C127.7,203.5,127.2,203.5,126.8,203.5z"/>
		<path class="st8" d="M77.1,216.8c-0.5-2.5-0.5-2.5-3.1-2.6c-2.1-0.1-3.4-1.4-3.4-3.3c0-1.9,1.4-3.1,3.5-3.2
			c4.2-0.1,8.4-0.1,12.6-0.1c2.1,0,3.3,1.1,3.4,3c0.1,2-1,3.1-3.3,3.3c-3,0.2-3,0.2-3,3.2c0.1,4.7,0.1,9.3,0.2,14
			c0,1.7-0.5,3-2.2,3.6c-3.2,0.1-4.3-1-4.2-4.2c0-4.4-0.3-8.7-0.2-13.1C77.3,217.3,77.5,216.9,77.1,216.8z"/>
		<path class="st5" d="M159.6,220c0,2.8-0.3,5.6-2.2,7.8c-3.3,3.9-9.2,3.5-11.6-1c-2.2-4.2-2.3-8.7-0.6-13c1.3-3.3,4-4.8,7.4-4.5
			c2.7,0.2,5.3,2.5,6.3,5.5C159.5,216.4,159.6,218.2,159.6,220z"/>
		<path class="st6" d="M169,222.3c1.6,0.5,3,0.1,4.4,0.2c1.4,0.1,2.3,0.7,2.3,2.1c0,1.4-0.9,2.2-2.3,2.2c-3.2,0.1-6.4,0.1-9.6,0.1
			c-1.1,0-1.8-0.5-2.3-1.4c-0.5-0.9,0-1.7,0.6-2.4c2-2.5,4-4.9,6-7.4c0.7-0.8,1.3-1.7,1.7-2.7c0.4-1.1,0.1-2-0.9-2.6
			c-1-0.6-1.9,0-2.5,0.8c-0.4,0.5-0.7,1.2-0.9,1.9c-0.4,1.2-1.2,1.7-2.5,1.5c-1.2-0.2-1.7-1.1-1.7-2.1c-0.1-2.5,1.1-4.3,3.1-5.6
			c2.8-1.8,6.6-1.5,8.8,0.8c2.1,2.1,2.3,5.4,0.4,8.3c-0.7,1.1-1.5,2.1-2.3,3.2C170.7,220.2,169.9,221.2,169,222.3z"/>
		<path class="st9" d="M185.6,222.2c1.6,0,2.8,0,4,0c1.7,0,2.6,0.8,2.6,2.2c0,1.4-0.8,2.2-2.6,2.2c-2.9,0-5.8,0.1-8.7,0.1
			c-1.2,0-2.3,0-2.8-1.3c-0.5-1.2,0.1-2,0.8-2.9c2.2-2.8,4.7-5.3,6.6-8.3c0.4-0.5,0.7-1.1,0.8-1.7c0.2-0.9,0.1-1.8-0.9-2.2
			c-1-0.4-1.9-0.2-2.5,0.7c-0.4,0.6-0.6,1.3-0.9,1.9c-0.5,1.1-1.2,1.8-2.5,1.5c-1.3-0.3-1.8-1.3-1.7-2.5c0-2.3,1.2-3.9,3-5.2
			c2.4-1.8,6.4-1.6,8.6,0.4c2.2,1.9,2.7,5,1.2,7.9c-1.1,2.2-2.9,4-4.4,6C186.2,221.3,186,221.6,185.6,222.2z"/>
		<path class="st5" d="M135.6,226.1c1.8,0,3.3,0,4.8,0c1.3,0,2.2,0.6,2.2,2c0,1.3-0.7,2.1-2.1,2.1c-3.1,0.1-6.1,0.1-9.2,0.2
			c-1.1,0-2.2-0.1-2.7-1.3c-0.5-1.1,0.1-1.9,0.8-2.7c2.1-2.5,4.2-5.1,6.2-7.7c0.6-0.7,1-1.4,1.3-2.3c0.3-1,0.1-1.9-0.9-2.4
			c-0.9-0.5-1.8-0.3-2.6,0.5c-0.6,0.6-0.8,1.5-1.1,2.2c-0.4,1.1-1.1,1.6-2.3,1.4c-1.2-0.2-1.6-1.1-1.7-2.2c-0.4-3.1,3-6.5,6.5-6.6
			c2.6-0.1,4.8,0.7,6.2,3c1.5,2.5,0.9,5.1-0.6,7.3C139.1,221.8,137.4,223.8,135.6,226.1z"/>
		<path class="st9" d="M92.5,221.1c0-3.3,0-6.6,0-9.9c0-2.5,1.2-3.9,3.4-3.9c2.2,0,3.3,1.2,3.4,3.8c0.1,6.6,0.3,13.2,0.3,19.8
			c0,2.5-1.4,4-3.5,3.9c-2-0.1-3.3-1.4-3.3-3.6c0-3.4,0-6.7,0-10.1C92.6,221.1,92.6,221.1,92.5,221.1z"/>
		<path class="st5" d="M176.3,237c-4.4,0.1-8.9-0.8-13.3-2.4c-0.9-0.3-2-0.7-2.3-1.7c-0.3-1-0.2-2,0.5-2.8c0.7-0.8,1.6-0.9,2.6-0.6
			c3,1,6.1,1.8,9.3,2.2c5.7,0.6,11.3-0.3,16.7-2.3c1-0.4,1.9-0.7,2.9,0c0.8,0.6,1.3,1.4,1.2,2.4c-0.1,1.1-0.8,1.8-1.8,2.2
			C187.1,236,182,237.1,176.3,237z"/>
		<path class="st10" d="M143.6,192.3c0,2.5,0,5.1,0,7.6c0,2.1-1.2,3.3-3,3.3c-1.9,0-3-1.2-3.1-3.3c-0.1-5-0.2-9.9-0.3-14.9
			c0-2.4,1.2-3.9,3.1-3.9c2,0,3.1,1.4,3.1,3.9c0,2.4,0,4.8,0,7.3C143.5,192.3,143.5,192.3,143.6,192.3z"/>
		<path class="st11" d="M116.6,192.8c0,2.5,0,5.1,0,7.6c0,2-1.2,3.2-3,3.2c-1.8,0-3.1-1.2-3.2-3.1c-0.1-5.2-0.2-10.4-0.2-15.6
			c0-2,1.2-3.3,3.1-3.4c1.8-0.1,3.1,1.2,3.1,3.3c0.1,2.7,0,5.3,0,8C116.5,192.8,116.6,192.8,116.6,192.8z"/>
		<path class="st12" d="M136.7,175.8c0-2.1,1.5-3.6,3.5-3.6c2,0,3.4,1.5,3.4,3.5c0,2-1.4,3.6-3.4,3.6
			C138.3,179.4,136.7,177.8,136.7,175.8z"/>
		<path class="st13" d="M68.1,188.9c0.8-1.9,1.8-3.7,3.4-5c0.9-0.7,2.2,0.4,2.1,1.5c0,0.3-0.1,0.7-0.4,1c-1.6,1.7-1.7,3.3,0,5
			c0.7,0.7,0.7,1.8-0.2,2.5c-1,0.7-1.8,0.2-2.4-0.7C69.7,191.9,68.5,190.7,68.1,188.9z"/>
		<path class="st14" d="M199.4,215.7c0,1.2-2.4,5-3.3,5.4c-0.5,0.2-1,0.1-1.5-0.2c-0.6-0.4-0.8-1.2-0.4-1.6c1.8-2.2,1.8-4.3-0.1-6.4
			c-0.4-0.4-0.1-1.2,0.4-1.6c0.5-0.5,1.2-0.6,1.6-0.2C197.6,212.5,198.7,214.1,199.4,215.7z"/>
		<path class="st15" d="M77.1,216.8c0.1-0.2,0.1-0.5,0.4-0.4c0.1,0.1,0,0.4,0,0.7c0.1,4.7,0.2,9.3,0.3,14c0,2.3,0.8,3.1,3.1,3.3
			c0.3,0,0.6,0.1,0.8,0.3c-2.2,1.1-4.6-0.9-4.6-3.3C77.1,226.5,77.1,221.7,77.1,216.8z"/>
		<path class="st16" d="M156.6,187.1c2.7,0,4.8,2,4.8,4.8c0,2.8-2.2,5-4.8,5c-2.7,0-4.8-2.2-4.8-4.9
			C151.7,189.2,153.7,187.1,156.6,187.1z"/>
		<path class="st17" d="M154.9,220.1c-0.1,1.5-0.1,3.1-0.8,4.6c-0.5,0.9-1.1,1.5-2.2,1.5c-1,0-1.7-0.5-2-1.4
			c-1.4-3.3-1.4-6.6-0.1-9.9c0.3-0.9,1.1-1.4,2.1-1.4c1,0,1.6,0.6,2,1.4C154.7,216.5,154.9,218.3,154.9,220.1z"/>
	</g>
</g>
</svg>
